<svg width="326" height="315" viewBox="0 0 326 315" fill="none" xmlns="http://www.w3.org/2000/svg">
<path d="M155.133 45.4498C155.527 45.1245 155.561 44.217 155.629 43.3267C156.177 33.1187 156.211 22.8896 155.732 12.6782C155.51 10.401 155.424 10.3154 152.993 10.127C146.418 9.56202 118.235 10.127 116.934 11.3256C116.043 12.1817 116.488 42.3678 117.293 45.0902C117.353 45.2162 117.445 45.3248 117.559 45.4057C117.672 45.4866 117.805 45.5371 117.944 45.5525C120.118 45.9121 153.267 46.9908 155.133 45.4498ZM117.31 11.7023C118.766 10.7606 150.904 10.5893 154.311 11.5311C155.184 15.7088 154.671 41.9227 154.174 44.5081C148.13 45.33 121.745 44.7821 118.338 44.4225C117.408 33.5421 117.065 22.6195 117.31 11.7023ZM156.708 55.1922C156.682 55.0075 156.606 54.8334 156.488 54.6886C156.371 54.5439 156.216 54.4338 156.04 54.3704C153.095 53.3088 119.485 54.0108 118.149 55.295C117.31 56.0826 117.618 86.1146 118.492 89.0596C118.552 89.1856 118.643 89.2942 118.757 89.3751C118.871 89.456 119.004 89.5065 119.142 89.5219C121.95 89.9842 151.811 90.7033 155.749 89.676C156.331 89.5219 156.52 89.2993 156.622 88.9227C157.307 86.3372 157.598 58.6851 156.708 55.1922ZM155.373 88.4604C149.311 89.2822 123.063 88.7686 119.536 88.4604C118.731 84.4367 118.081 58.24 118.509 55.7402C120.033 54.7128 152.376 54.6957 155.51 55.5518C156.314 59.3529 155.886 85.5667 155.373 88.4604ZM201.088 45.0731C201.465 44.7649 201.499 43.8403 201.585 42.95C202.099 32.7403 202.099 22.5112 201.585 12.3015C201.362 10.0243 201.26 9.95583 198.863 9.75036C192.271 9.20246 164.105 9.75036 162.804 10.9489C161.913 11.7879 162.341 41.9912 163.163 44.7136C163.213 44.8437 163.299 44.9566 163.411 45.0387C163.524 45.1207 163.658 45.1684 163.797 45.1759C166.159 45.5525 199.205 46.6141 201.088 45.0731ZM163.266 11.3256C166.69 10.2811 197.202 10.2983 200.249 11.1544C201.054 14.9897 200.695 41.1351 200.112 44.1314C194.051 44.9533 167.786 44.4225 164.276 44.1314C163.344 33.2226 163.007 22.2711 163.266 11.3256ZM53.4965 112.003C53.7362 112.671 54.6265 112.962 55.3628 113.133C61.6294 114.657 84.6414 113.835 91.7471 112.483C92.5005 112.346 94.0072 112.072 94.4181 111.438C95.9933 108.904 95.3598 68.1707 93.4764 65.9106C91.593 63.6505 58.4961 64.0443 55.5853 66.2702C53.3937 67.9653 52.8801 110.222 53.4965 112.003ZM56.3216 67.1434C59.0954 65.2086 91.7471 64.6436 93.0655 66.236C94.7777 68.2906 94.5722 108.339 93.3908 110.753C90.189 112.465 58.8043 113.544 54.7464 111.575C54.1985 111.25 54.7121 70.6534 56.3216 67.1434ZM11.6502 124.143C11.7863 124.347 11.9692 124.515 12.1836 124.634C12.3981 124.754 12.6378 124.82 12.883 124.828C19.0364 125.33 25.2244 125.227 31.3577 124.519C31.9179 124.497 32.457 124.3 32.8986 123.954C33.8232 122.739 33.3438 105.702 32.2994 104.675C31.2549 103.648 14.5438 103.596 12.8659 104.675C12.6095 104.894 12.4395 105.198 12.3864 105.531C11.6126 111.703 11.3663 117.929 11.6502 124.143ZM31.9056 123.235C28.8646 123.659 25.7985 123.876 22.7282 123.886C22.9574 123.42 23.2147 122.968 23.4986 122.533C24.5152 121.203 25.8391 120.139 27.357 119.432C28.8748 118.725 30.5413 118.397 32.2138 118.475C32.2066 120.067 32.1036 121.656 31.9056 123.235ZM13.6021 105.582C15.6568 104.778 31.4262 104.555 31.9398 105.052C32.0948 105.569 32.1867 106.104 32.2138 106.644C29.5941 106.986 29.1832 111.935 29.1147 114.571C28.0529 112.849 26.8744 111.202 25.5875 109.64C25.1369 109.28 24.6023 109.039 24.0335 108.94C23.4648 108.841 22.8803 108.888 22.3343 109.075C21.0844 109.623 21.3241 111.164 21.4954 112.38C21.935 113.937 22.5557 115.436 23.3445 116.849C22.3172 116.027 18.2079 112.705 17.0436 112.5C15.8793 112.294 14.7493 112.363 14.1671 113.39C12.4549 116.404 16.5813 121.403 19.0298 123.852C16.9697 123.878 14.9103 123.764 12.8659 123.509C12.6614 117.524 12.9075 111.531 13.6021 105.582Z" fill="#F83E7D"/>
<path d="M5.55473 130.444C5.79443 131.009 6.58205 131.214 7.26693 131.334C12.4035 132.395 30.8953 131.796 36.6312 130.872C37.2819 130.752 38.5146 130.563 38.8742 130.084C40.2097 128.269 39.6447 99.915 38.0866 98.2713C36.7682 96.9015 9.8866 96.7816 7.36966 98.4254C7.03825 98.7442 6.82664 99.1674 6.77039 99.6239C5.45199 104.795 5.04106 129.177 5.55473 130.444ZM8.0203 99.3671C10.3831 98.0829 36.597 97.6549 37.6414 98.6479C38.6859 99.641 38.84 126.437 37.8469 129.314C34.5423 130.375 14.2014 131.231 6.77039 129.93C6.42795 128.766 6.73615 103.031 8.0203 99.3671ZM266.375 95.4975C267.039 96.2577 267.748 96.9781 268.498 97.6549C268.515 97.6839 268.539 97.709 268.566 97.7284C268.594 97.7478 268.626 97.761 268.659 97.7673C268.692 97.7736 268.727 97.7728 268.759 97.7649C268.792 97.757 268.823 97.7422 268.85 97.7215C268.877 97.7008 268.899 97.6746 268.915 97.6447C268.931 97.6148 268.94 97.5819 268.943 97.5481C268.945 97.5143 268.94 97.4804 268.928 97.4486C268.917 97.4169 268.898 97.388 268.874 97.3638C267.554 94.7765 265.691 92.5047 263.413 90.7033C263.369 90.6556 263.309 90.627 263.245 90.6238C263.181 90.6206 263.118 90.6431 263.07 90.6862C263.022 90.7293 262.994 90.7897 262.991 90.8539C262.987 90.9181 263.01 90.981 263.053 91.0286C264.014 92.6217 265.126 94.1183 266.375 95.4975ZM248.996 101.918C249.676 99.3186 249.787 96.6029 249.321 93.9565C249.321 93.8929 249.296 93.832 249.251 93.787C249.206 93.7421 249.145 93.7168 249.081 93.7168C249.018 93.7168 248.957 93.7421 248.912 93.787C248.867 93.832 248.842 93.8929 248.842 93.9565C248.625 94.949 248.482 95.9563 248.414 96.97C248.235 98.6055 248.269 100.257 248.516 101.884C248.482 102.209 248.962 102.244 248.996 101.918ZM226.686 99.9835C227.457 98.8694 228.106 97.6753 228.621 96.4221C229.207 95.1902 229.638 93.8905 229.905 92.5525C229.897 92.5108 229.879 92.4719 229.851 92.4397C229.823 92.4076 229.788 92.3833 229.748 92.3694C229.708 92.3554 229.665 92.3524 229.623 92.3605C229.581 92.3686 229.543 92.3876 229.511 92.4155C229.34 92.6895 228.809 93.4771 228.484 94.1277C227.476 95.9342 226.738 97.8781 226.292 99.8979C226.261 99.9283 226.24 99.9663 226.229 100.008C226.218 100.05 226.219 100.094 226.231 100.135C226.243 100.176 226.266 100.214 226.298 100.243C226.329 100.272 226.368 100.293 226.41 100.302C226.452 100.311 226.496 100.309 226.537 100.295C226.578 100.281 226.614 100.257 226.643 100.224C226.671 100.192 226.69 100.152 226.697 100.11C226.705 100.067 226.701 100.024 226.686 99.9835ZM120.649 218.091C129.707 218.673 129.826 208.88 120.649 210.438C114.793 210.746 116.591 217.783 120.649 218.091ZM120.649 210.951C128.303 210.558 127.686 217.218 120.649 216.79C118.218 216.67 116.077 211.722 120.718 210.951H120.649ZM153.763 212.783C162.855 213.366 162.94 203.572 153.763 205.13C147.976 205.421 149.722 212.475 153.763 212.783ZM153.763 205.644C161.417 205.25 160.817 211.91 153.763 211.482C151.366 211.362 149.209 206.414 153.832 205.644H153.763ZM173.214 216.961C182.288 217.543 182.391 207.75 173.214 209.291C167.409 209.616 169.156 216.653 173.214 216.961ZM173.214 209.821C180.867 209.428 180.268 216.088 173.214 215.66C170.817 215.54 168.642 210.558 173.282 209.821H173.214ZM178.504 202.955C187.562 203.538 187.699 193.744 178.504 195.302C172.7 195.61 174.464 202.664 178.504 202.955ZM178.504 195.833C186.158 195.439 185.542 202.082 178.504 201.671C176.107 201.534 173.933 196.586 178.573 195.833H178.504ZM110.222 181.724C112.57 182.291 115.044 182.012 117.208 180.936C120.632 179.087 120.786 174.875 118.766 171.588C115.632 166.451 109.109 166.982 106.78 170.663C105.783 172.436 105.449 174.506 105.838 176.502C106.07 177.671 106.593 178.763 107.359 179.676C108.125 180.589 109.11 181.294 110.222 181.724ZM107.123 176.313C106.774 174.619 107.009 172.857 107.79 171.314C108.612 170.135 109.816 169.276 111.198 168.883C112.581 168.49 114.056 168.586 115.375 169.156C118.903 171.143 120.769 177.82 116.608 179.858C114.754 180.744 112.657 180.985 110.65 180.543C109.758 180.184 108.97 179.609 108.354 178.872C107.739 178.134 107.316 177.255 107.123 176.313Z" fill="#F83E7D"/>
<path d="M110.718 172.016C110.513 171.673 109.417 171.365 109.503 172.41C109.588 173.454 111.369 173.06 110.718 172.016ZM114.536 172.05C114.913 171.451 113.424 170.338 113.269 171.759C113.218 172.221 113.869 173.06 114.536 172.05ZM110.273 176.313C109.64 176.741 111.609 178.71 114.04 177.615C114.414 177.461 114.738 177.207 114.977 176.881C115.216 176.555 115.36 176.168 115.393 175.765C115.403 175.733 115.406 175.699 115.403 175.665C115.4 175.631 115.39 175.598 115.374 175.567C115.358 175.537 115.337 175.51 115.31 175.489C115.284 175.467 115.254 175.45 115.221 175.44C115.189 175.43 115.154 175.426 115.12 175.43C115.086 175.433 115.053 175.442 115.023 175.458C114.993 175.474 114.966 175.496 114.944 175.522C114.923 175.548 114.906 175.579 114.896 175.611C114.311 176.088 113.615 176.41 112.873 176.547C112.131 176.685 111.367 176.634 110.65 176.399C110.608 176.341 110.547 176.3 110.478 176.285C110.408 176.269 110.335 176.279 110.273 176.313ZM130.939 185.114C132.497 185.765 139.877 185.576 141.093 184.035C141.401 183.659 141.195 183.282 140.973 182.854C140.219 181.416 136.025 174.396 134.518 174.653C133.011 174.909 131.504 178.933 131.093 180.251C130.683 181.57 129.689 184.583 130.939 185.114ZM132.652 178.573C132.874 177.906 133.833 175.303 134.518 175.149C135.203 174.995 139.654 183.196 139.757 183.368C137.05 184.082 134.233 184.28 131.453 183.95C131.617 182.106 132.044 180.296 132.72 178.573H132.652ZM175.388 96.011C175.363 95.8544 175.283 95.712 175.162 95.6092C175.041 95.5063 174.888 95.4499 174.729 95.4499C174.57 95.4499 174.417 95.5063 174.296 95.6092C174.175 95.712 174.095 95.8544 174.07 96.011C174.087 96.4121 174.156 96.8092 174.275 97.1925C174.289 97.2872 174.323 97.3778 174.375 97.4582C174.427 97.5386 174.496 97.6069 174.577 97.6584C174.657 97.7099 174.748 97.7434 174.843 97.7568C174.938 97.7701 175.034 97.7628 175.126 97.7356C175.218 97.7083 175.303 97.6616 175.375 97.5986C175.447 97.5357 175.505 97.4579 175.544 97.3707C175.584 97.2835 175.604 97.1888 175.604 97.093C175.603 96.9973 175.582 96.9027 175.542 96.8158C175.465 96.5531 175.414 96.2836 175.388 96.011ZM179.052 101.815C179.491 101.62 179.891 101.348 180.234 101.011C180.508 100.754 180.388 100.463 179.994 100.531L178.847 100.771C178.619 99.9371 178.475 99.0824 178.419 98.2198C178.419 97.5691 178.128 95.4802 177.785 95.3433C177.443 95.2063 177.357 95.8741 177.254 96.4562C176.946 98.4081 177.203 102.535 179.052 101.815ZM181.877 95.5487C181.903 95.7053 181.983 95.8478 182.104 95.9506C182.225 96.0534 182.378 96.1099 182.537 96.1099C182.695 96.1099 182.849 96.0534 182.969 95.9506C183.09 95.8478 183.17 95.7053 183.196 95.5487V94.607C183.174 94.4331 183.089 94.2733 182.956 94.1593C182.823 94.0452 182.652 93.9851 182.477 93.9906C182.301 94.008 182.139 94.0925 182.024 94.2265C181.909 94.3604 181.851 94.5336 181.86 94.7098C181.792 94.8296 181.877 95.5487 181.877 95.5487ZM182.545 102.894C182.305 102.894 182.545 102.894 181.261 103.904C181.137 104.005 181.005 104.097 180.867 104.178C179.6 104.914 179.018 104.504 178.898 104.88C178.778 105.257 179.789 105.856 180.901 105.582C182.716 105.137 183.007 103.031 182.545 102.894ZM58.5816 106.353C58.77 106.935 59.4891 107.192 60.0884 107.329C64.9681 108.561 82.4669 107.859 87.672 106.832C88.3226 106.695 89.3842 106.473 89.778 105.942C91.0108 103.904 90.4115 72.2799 88.9904 70.4992C87.5692 68.7185 62.5026 68.9411 60.2082 70.7218C58.496 72.0916 58.1022 104.949 58.5816 106.353ZM86.1481 90.9429C86.6586 90.7597 87.2038 90.6939 87.7433 90.7502C88.2828 90.8065 88.8026 90.9836 89.2643 91.2682C89.3374 95.943 89.1602 100.618 88.7335 105.274L88.3911 105.394C87.2237 101.035 84.8498 97.0944 81.5423 94.0249C82.9553 92.8112 84.5003 91.7601 86.1481 90.8915V90.9429ZM79.8643 77.2453C82.6895 79.0602 82.6038 83.7174 77.6727 83.7688C74.6763 83.7688 73.3922 82.3305 73.3922 80.6183C73.3743 79.8582 73.5685 79.1081 73.9531 78.4522C74.3377 77.7963 74.8974 77.2605 75.5694 76.9049C76.2415 76.5494 76.9993 76.388 77.7579 76.4391C78.5166 76.4901 79.2459 76.7515 79.8643 77.1939V77.2453ZM62.982 91.6278C67.9988 88.6314 71.7142 88.4602 76.6796 91.6278C81.1142 94.4872 85.9769 100.189 87.1412 105.685C82.0046 106.61 62.28 107.397 59.7459 106.01C59.5233 105.086 59.4377 95.3946 59.4377 94.3331C60.527 93.3015 61.714 92.3783 62.982 91.5764V91.6278ZM226.84 282.847C226.046 282.907 225.261 283.044 224.494 283.258C223.689 283.566 222.987 284.062 223.381 284.833C223.878 285.935 224.636 286.899 225.59 287.641C225.83 287.898 226.206 287.521 225.967 287.264C225.727 287.007 225.693 286.477 224.734 284.576C225.548 284.223 226.333 283.805 227.08 283.326C227.129 283.287 227.163 283.232 227.176 283.171C227.19 283.11 227.182 283.045 227.154 282.989C227.126 282.933 227.079 282.888 227.022 282.862C226.965 282.836 226.901 282.831 226.84 282.847ZM223.364 277.933C223.037 277.904 222.709 277.969 222.419 278.121C222.128 278.273 221.888 278.506 221.725 278.791C221.563 279.076 221.486 279.401 221.503 279.729C221.521 280.056 221.632 280.372 221.823 280.638C221.838 280.697 221.872 280.749 221.921 280.786C221.969 280.824 222.028 280.844 222.088 280.844C222.149 280.844 222.208 280.824 222.256 280.786C222.305 280.749 222.339 280.697 222.354 280.638C222.355 280.202 222.469 279.775 222.685 279.396C222.902 279.018 223.212 278.703 223.587 278.481C223.843 278.292 223.792 277.847 223.364 277.933ZM179.309 107.688C179.13 107.683 178.955 107.736 178.809 107.839C178.663 107.942 178.554 108.09 178.5 108.261C178.446 108.431 178.449 108.614 178.508 108.783C178.568 108.952 178.681 109.096 178.83 109.195C179.008 109.308 179.223 109.348 179.431 109.307C179.638 109.265 179.821 109.146 179.943 108.972C180.019 108.851 180.064 108.712 180.071 108.568C180.079 108.425 180.05 108.282 179.986 108.153C179.922 108.024 179.827 107.913 179.708 107.832C179.59 107.751 179.452 107.701 179.309 107.688ZM182.323 108.818C182.107 108.839 181.907 108.937 181.759 109.095C181.611 109.252 181.525 109.458 181.518 109.674C181.516 109.834 181.562 109.99 181.649 110.124C181.736 110.257 181.861 110.362 182.008 110.424C182.155 110.487 182.316 110.504 182.473 110.474C182.63 110.444 182.774 110.369 182.888 110.257C183.014 110.145 183.104 109.997 183.143 109.833C183.183 109.669 183.171 109.497 183.109 109.339C183.048 109.182 182.939 109.048 182.798 108.955C182.657 108.861 182.491 108.814 182.323 108.818ZM182.271 106.233C182.237 106.355 182.231 106.483 182.255 106.607C182.278 106.732 182.33 106.849 182.406 106.95C182.482 107.051 182.581 107.134 182.694 107.19C182.807 107.247 182.932 107.277 183.059 107.277C183.18 107.273 183.299 107.244 183.408 107.192C183.517 107.14 183.614 107.066 183.693 106.974C183.772 106.882 183.831 106.775 183.866 106.659C183.901 106.543 183.912 106.422 183.898 106.301C183.86 106.118 183.762 105.953 183.62 105.831C183.477 105.71 183.298 105.64 183.111 105.632C182.924 105.624 182.74 105.679 182.588 105.788C182.436 105.897 182.324 106.053 182.271 106.233ZM186.928 109.76C187.105 109.765 187.279 109.712 187.423 109.608C187.567 109.504 187.672 109.356 187.723 109.186C187.773 109.016 187.767 108.835 187.704 108.669C187.64 108.503 187.524 108.363 187.374 108.27C187.25 108.195 187.109 108.154 186.965 108.15C186.82 108.147 186.677 108.182 186.55 108.251C186.424 108.321 186.317 108.422 186.243 108.546C186.168 108.67 186.127 108.811 186.124 108.955C186.128 109.167 186.214 109.369 186.364 109.519C186.514 109.669 186.716 109.756 186.928 109.76ZM188.418 105.942C188.533 105.918 188.641 105.871 188.736 105.802C188.83 105.734 188.909 105.646 188.967 105.544C189.025 105.443 189.061 105.33 189.072 105.213C189.083 105.097 189.069 104.98 189.03 104.869C188.992 104.758 188.931 104.657 188.851 104.572C188.771 104.487 188.673 104.42 188.565 104.376C188.457 104.332 188.34 104.311 188.223 104.315C188.107 104.32 187.992 104.349 187.887 104.401C187.709 104.49 187.568 104.641 187.493 104.825C187.417 105.01 187.411 105.216 187.476 105.404C187.541 105.593 187.673 105.751 187.846 105.85C188.019 105.949 188.223 105.982 188.418 105.942Z" fill="#F83E7D"/>
<path d="M316.611 189.446C313.349 188.462 309.843 188.662 306.714 190.011C313.786 180.936 317.587 171.862 317.587 159.637C317.587 152.702 316.902 146.179 310.344 144.004C306.303 142.651 299.232 144.757 295.397 146.709C295.397 139.45 295.996 43.7546 293.393 36.8373C293.188 36.238 292.024 35.9812 291.339 35.81C283.959 34.0122 248.534 30.7932 246.821 32.2828C245.708 33.2417 246.085 40.4843 246.154 41.9225C243.842 41.9225 232.833 41.7684 231.36 43.532C229.083 46.2202 216.961 77.485 217.663 80.9608C217.696 81.157 217.792 81.3372 217.937 81.4744C225.196 88.5458 273.206 87.2617 275.398 82.8613C276.819 80.293 267.179 46.4085 265.467 44.4737C263.755 42.5389 249.492 42.0253 246.77 41.991C246.591 39.1342 246.694 36.2666 247.078 33.43C247.249 32.7109 247.369 32.7794 247.643 32.728C252.232 31.889 289.678 35.5874 292.486 37.351C293.753 41.2548 293.77 66.1673 294.335 147.394C289.454 150.186 285.591 154.463 283.308 159.602C281.048 159.26 277.966 161.828 276.357 163.438C274.163 165.677 272.254 168.179 270.672 170.886C270.379 165.933 269.558 161.025 268.224 156.246C264.337 145.785 252.626 127.139 244.459 135.015C241.362 138.506 239.257 142.763 238.363 147.343C235.384 144.513 232.106 142.016 228.586 139.895C226.515 132.615 221.936 126.301 215.659 122.071C213.108 120.278 210.404 118.714 207.578 117.396C207.555 117.342 207.527 117.29 207.492 117.242C205.78 115.308 201.379 114.725 198.76 114.623C199 112.654 197.304 104.093 196.894 102.004C197.404 102.014 197.907 101.883 198.349 101.627C200.061 101.524 206.773 101.199 207.989 100.12C208.212 99.8653 208.356 99.5494 208.4 99.2129C208.684 97.4499 208.867 95.672 208.947 93.8879C209.786 81.2347 209.221 81.9025 209.615 81.9025C215.026 83.9058 216.806 78.6835 209.615 76.1495V75.6358C211.721 75.1735 214.17 74.1976 213.194 72.2114C212.797 71.6525 212.266 71.2025 211.65 70.9032C211.033 70.604 210.351 70.465 209.667 70.4992C209.667 66.1502 210.814 5.28139 208.074 2.01108C205.009 -1.63592 111.369 0.161899 108.167 3.55206C106.232 5.50397 107.431 91.4908 109.657 99.6752C109.777 100.103 110.239 100.189 110.684 100.257C118.098 101.456 162.05 101.97 172.323 102.072C172.541 103.177 172.821 104.269 173.162 105.343C173.948 107.302 175.112 109.088 176.587 110.599C177.877 111.501 179.397 112.018 180.97 112.089C180.456 113.253 179.463 115.41 178.95 116.489C174.119 117.912 169.509 119.998 165.252 122.687C153.746 130.615 145.236 145.374 138.764 157.479C137.553 159.877 136.506 162.354 135.631 164.893C128.508 164.705 99.2294 165.732 98.4589 166.605C98.0651 166.982 98.4589 167.769 98.5617 168.471C99.8972 173.42 104.88 189.549 106.934 195.336C103.835 195.833 100.736 196.466 97.6371 197.048C97.5546 196.82 97.4573 196.596 97.346 196.38C97.3035 196.281 97.2414 196.191 97.1634 196.116C97.0854 196.042 96.9931 195.983 96.8921 195.945C96.7911 195.907 96.6834 195.889 96.5754 195.893C96.4674 195.897 96.3614 195.923 96.2636 195.969C96.1658 196.015 96.0783 196.08 96.0063 196.161C95.9342 196.241 95.8792 196.336 95.8444 196.438C95.8096 196.54 95.7957 196.649 95.8037 196.756C95.8116 196.864 95.8412 196.969 95.8906 197.065C95.9238 197.138 95.9524 197.212 95.9762 197.288C92.3121 197.784 90.1376 197.733 82.056 198.88C82.0006 198.696 81.881 198.538 81.719 198.434C81.557 198.331 81.3633 198.289 81.1729 198.315C80.9825 198.342 80.808 198.437 80.6811 198.581C80.5541 198.725 80.4831 198.911 80.4808 199.103C75.7894 199.805 71.5945 200.541 66.612 201.466C66.5443 201.25 66.4642 201.039 66.3722 200.832C66.2857 200.637 66.1264 200.483 65.9282 200.403C65.7301 200.323 65.5086 200.323 65.3107 200.404C65.2125 200.445 65.1234 200.505 65.0486 200.581C64.9738 200.657 64.9148 200.747 64.875 200.845C64.8352 200.944 64.8154 201.05 64.8167 201.156C64.818 201.263 64.8404 201.368 64.8826 201.466C64.8826 201.568 64.8826 201.654 65.0025 201.757C60.7562 202.544 56.4415 203.366 52.2808 204.137V203.418C52.2473 203.209 52.1378 203.02 51.9735 202.887C51.8091 202.755 51.6015 202.687 51.3905 202.698C51.2846 202.709 51.1818 202.741 51.0882 202.791C50.9946 202.842 50.9119 202.911 50.845 202.993C50.7782 203.076 50.7284 203.172 50.6985 203.274C50.6687 203.376 50.6595 203.483 50.6713 203.589C50.6885 203.868 50.6885 204.148 50.6713 204.428C48.5653 204.804 46.4422 205.147 44.3191 205.489C44.2546 205.316 44.1321 205.17 43.9724 205.076C43.8127 204.982 43.6254 204.946 43.4423 204.974C43.2592 205.002 43.0914 205.093 42.9673 205.23C42.8432 205.368 42.7703 205.544 42.761 205.729C28.6867 207.904 31.6316 207.202 27.6936 199.36C27.0267 197.564 25.8917 195.98 24.4061 194.771C24.1709 194.635 23.9108 194.547 23.6412 194.513C23.3715 194.479 23.0978 194.5 22.8362 194.573C22.5745 194.647 22.3302 194.772 22.1176 194.941C21.905 195.11 21.7284 195.32 21.5981 195.559C20.5023 197.1 21.2728 202.288 21.5981 204.274C21.9234 206.26 23.6699 215.471 24.8684 216.67C25.3136 217.115 26.769 217.149 28.0703 217.218V217.612C16.1876 218.725 1.12017 222.92 0.0586066 234.871C-0.729007 243.826 6.53074 247.37 15.2801 249.27C14.7322 252.267 7.40396 291.391 7.79777 293.668C8.27718 296.253 14.4754 297.76 15.5198 294.969C17.1293 290.603 23.0021 255.126 23.7726 250.452C32.5314 251.247 41.3511 251.075 50.0721 249.938C50.8597 254.595 56.6983 289.867 58.3078 294.233C59.3351 297.007 65.5504 295.5 66.0127 292.932C66.4236 290.654 59.1639 251.941 58.4619 248.106C68.2043 245.195 78.1351 239.237 76.7824 229.118C89.2473 228.553 103.51 227.012 115.838 225.402C115.826 227.61 116.343 229.788 117.345 231.755C118.56 234.032 122.926 235.59 125.375 236.377C124.93 238.757 116.591 283.086 117.019 285.501C117.447 287.915 123.697 289.576 124.724 286.802C126.436 282.265 132.669 244.202 133.645 238.518C152.616 242.439 161.417 241.291 168.214 240.521C168.385 242.559 171.639 284.679 172.717 286.75C173.847 289.113 180.234 288.942 180.508 285.997C180.936 281.254 177.083 244.048 176.724 239.408C187.161 238.082 197.414 235.578 207.287 231.943C209.341 239.768 214.563 259.338 215.009 260.93C210.039 262.882 205.834 266.39 203.023 270.93C200.006 272.274 197.068 273.789 194.222 275.467C192.651 276.157 191.139 276.976 189.702 277.916C188.344 278.775 187.179 279.906 186.278 281.237C186.179 281.458 186.127 281.697 186.127 281.939C186.127 282.181 186.179 282.42 186.278 282.641C186.695 283.49 187.277 284.246 187.99 284.867C191.123 287.589 192.716 286.305 198.674 294.815C201.722 299.147 202.835 304.677 206.653 309.352C209.341 312.639 210.677 316.2 216.926 314.608C220.351 313.752 222.234 312.262 226.908 310.995C229.288 310.362 231.737 309.899 234.117 309.18C248.876 304.763 245.4 305.961 255.502 304.523C257.214 304.266 259.047 303.873 260.81 303.599C263.902 303.346 267.006 303.254 270.107 303.325C270.498 303.223 270.848 303.004 271.111 302.698C271.374 302.392 271.537 302.014 271.58 301.612C271.73 300.713 271.77 299.799 271.7 298.89C271.875 296.807 271.357 294.724 270.227 292.966C278.138 294.336 298.975 292.692 300.722 291.665C300.883 291.581 301.015 291.45 301.098 291.288C302.126 289.079 303.581 269.32 303.598 261.752C304.172 261.661 304.743 261.553 305.31 261.427C306.509 261.136 306.68 255.537 305.927 254.013C305.865 253.864 305.772 253.731 305.654 253.621C305.536 253.512 305.395 253.429 305.242 253.38C300.345 252.267 286.938 252.541 281.665 252.746C281.472 246.367 280.779 240.012 279.593 233.741C285.941 232.282 292.112 230.141 297.999 227.354C308.974 221.926 315.344 219.786 322.689 209.188C327.946 201.654 325.292 192.322 316.611 189.446V189.446ZM265.056 44.7477C266.769 46.4599 274.765 77.2795 274.628 82.0395C274.525 85.9775 225.984 87.1761 218.981 80.6868C219.067 75.3276 230.487 46.2202 232.182 44.1655C233.877 42.1109 262.83 42.3506 265.056 44.7477V44.7477ZM299.54 146.333C302.4 145.391 307.074 144.278 309.933 145.237C315.857 147.206 316.268 153.421 316.268 159.637C316.268 172.547 311.919 181.758 304.095 191.192C300.499 193.175 297.221 195.686 294.369 198.641C295.908 192.23 296.285 185.596 295.482 179.053C295.35 177.89 295.103 176.743 294.746 175.628C295.939 172.019 297.416 168.509 299.163 165.133C301.92 159.996 303.033 160.082 302.588 159.654C302.565 159.628 302.538 159.608 302.507 159.594C302.476 159.58 302.442 159.572 302.408 159.572C302.374 159.572 302.34 159.58 302.309 159.594C302.278 159.608 302.251 159.628 302.228 159.654C298.606 163.743 295.841 168.517 294.095 173.694C292.503 169.447 288.394 161.828 284.37 159.996C285.809 156.789 287.902 153.917 290.514 151.564C293.126 149.212 296.2 147.43 299.54 146.333V146.333ZM277.179 164.328C278.632 162.685 280.529 161.496 282.641 160.904C285.894 160.39 293.53 172.273 294.164 179.293C295.071 186.48 294.488 193.777 292.452 200.729C290.738 202.597 289.143 204.57 287.675 206.637C284.438 211.225 282.709 212.15 280.004 219.495C280.466 201.312 281.904 177.957 281.904 177.187C281.922 177.147 281.929 177.104 281.925 177.061C281.921 177.018 281.907 176.977 281.883 176.941C281.859 176.906 281.826 176.876 281.788 176.856C281.75 176.836 281.708 176.826 281.665 176.827C281.374 176.827 281.374 177.187 281.339 177.461C280.877 181.827 279.165 210.557 278.822 221.704C275.792 207.099 268.549 201.586 266.101 198.041C265.159 186.244 268.72 172.666 277.179 164.328V164.328ZM242.935 177.461C244.647 182.169 247.712 188.864 251.496 192.1C247.59 191.279 243.538 191.479 239.733 192.682C240.606 189.617 242.472 181.142 242.969 177.409L242.935 177.461ZM237.37 196.86C237.34 196.397 237.453 195.937 237.695 195.541C241.12 191.021 259.594 190.901 270.227 205.164C275.371 212.429 278.21 221.074 278.377 229.974C273.634 221.961 257.197 206.243 246.599 202.579C246.566 202.567 246.532 202.563 246.497 202.565C246.463 202.567 246.429 202.576 246.398 202.591C246.367 202.606 246.339 202.627 246.317 202.653C246.294 202.679 246.276 202.709 246.265 202.741C246.254 202.774 246.249 202.808 246.251 202.843C246.253 202.877 246.262 202.911 246.277 202.942C246.292 202.973 246.313 203.001 246.339 203.023C246.365 203.046 246.395 203.064 246.428 203.075C258.91 207.647 278.531 228.912 278.275 233.244C277.215 233.223 276.155 233.292 275.107 233.45C273.622 233.449 272.14 233.334 270.672 233.107C265.981 232.302 262.967 230.145 255.828 223.433C250.803 218.838 246.137 213.863 241.873 208.554C240.247 205.729 237.319 200.164 237.37 196.86V196.86ZM239.425 148.011C240.214 143.495 242.241 139.286 245.28 135.854C252.369 129.005 263.515 147.446 266.923 156.623C268.368 161.982 269.229 167.482 269.491 173.026C266.17 180.22 264.626 188.106 264.988 196.021C260.091 188.624 253.276 172.547 250.794 160.065C250.331 157.856 248.465 146.196 248.465 144.843C248.671 144.501 247.951 144.107 247.917 144.843C248.333 152.405 249.439 159.913 251.222 167.273C253.84 176.447 257.505 185.288 262.146 193.624C265.844 200.473 266.58 197.836 258.413 194.086C256.756 193.362 255.037 192.789 253.276 192.374C252.362 191.703 251.513 190.946 250.742 190.114C243.979 182.289 237.781 160.493 239.425 148.028V148.011ZM110.684 201.089C113.201 201.226 116.009 200.524 117.053 198.264L129.296 198.572C129.183 199.676 129.501 200.78 130.184 201.655C130.867 202.529 131.862 203.106 132.96 203.263C133.963 203.395 134.982 203.319 135.954 203.039C136.927 202.759 137.831 202.282 138.61 201.637C139.016 201.279 139.332 200.831 139.531 200.328C139.731 199.825 139.808 199.282 139.757 198.743L147.822 198.863C148.25 199.479 172.204 196.689 174.344 195.678C175.405 195.182 175.097 193.435 174.481 192.442C174.686 192.442 174.584 192.442 174.823 192.836C174.968 193.193 175.212 193.502 175.525 193.726C178.458 194.084 181.434 193.738 184.206 192.716C184.754 192.34 184.686 191.894 184.566 191.192C199.77 189.035 198.503 189.48 207.132 187.494C207.612 187.391 201.14 189.634 197.287 191.706C195.428 192.686 193.701 193.9 192.151 195.319C188.247 199.069 179.652 226.002 172.786 227.303C164.401 228.708 155.862 228.95 147.411 228.022C147.654 227.423 147.716 226.766 147.588 226.133C147.46 225.499 147.148 224.918 146.692 224.461C145.977 223.805 145.141 223.297 144.23 222.965C143.32 222.633 142.352 222.484 141.384 222.526C138.405 222.526 136.915 224.358 137.446 226.738C129.609 225.473 121.873 223.647 114.297 221.276C113.543 219.118 111.078 203.709 110.684 201.089V201.089ZM110.41 198.007L115.547 198.23C114.928 198.837 114.18 199.297 113.359 199.576C112.538 199.854 111.665 199.944 110.804 199.839C110.735 199.651 110.598 198.897 110.41 198.007ZM138.49 198.726C138.499 198.84 138.499 198.955 138.49 199.069C138.441 199.488 138.292 199.89 138.057 200.242C137.822 200.593 137.507 200.883 137.138 201.089C135.878 201.814 134.421 202.12 132.977 201.962C132.279 201.819 131.644 201.461 131.159 200.939C130.674 200.418 130.364 199.758 130.272 199.051C130.263 198.897 130.263 198.743 130.272 198.589L138.49 198.726ZM154.397 186.09L150.27 186.604C162.855 169.756 155.715 177.358 154.397 186.09ZM149.448 187.802L154.585 187.22C155.013 187.973 159.122 189.309 159.91 189.566C159.76 189.852 159.634 190.149 159.533 190.456C155.852 190.182 151.982 189.925 147.976 189.788L149.448 187.802ZM183.367 191.723C181.036 192.386 178.615 192.675 176.193 192.579C174.348 188.333 172.77 183.975 171.467 179.532C173.428 177.816 175.78 176.605 178.316 176.005C179.069 177.803 183.282 189.908 183.367 191.723V191.723ZM174.104 191.261C164.482 191.86 162.119 192.203 160.595 191.826C160.492 187.665 167.632 185.508 171.775 184.84C172.597 187.357 173.453 189.651 174.104 191.244V191.261ZM154.328 195.011C156.28 194.737 171.45 192.716 173.402 193.179C173.64 193.588 173.753 194.058 173.727 194.531C171.365 195.25 148.507 198.298 148.301 198.315C148.083 197.652 147.967 196.959 147.959 196.261V196.124C148.815 196.106 145.613 196.209 154.328 194.994V195.011ZM146.983 190.936C150.407 191.073 153.986 191.261 159.311 191.689C159.311 192.151 159.311 192.579 159.79 192.922C160.269 193.264 161.502 192.768 153.934 194.189C151.798 194.478 149.698 194.988 147.668 195.713C146.64 190.525 146.589 191.398 146.983 190.918V190.936ZM146.229 227.491C137.412 226.567 138.011 226.875 137.994 226.498C137.943 226.046 138.017 225.589 138.207 225.175C138.397 224.762 138.696 224.408 139.072 224.152C140.99 222.902 147.325 224.409 146.229 227.474V227.491ZM206.328 117.465C205.865 117.825 189.942 129.93 187.596 131.402C186.41 129.553 185.1 127.785 183.675 126.112C185.593 123.988 198.503 115.102 198.503 115.102C199.051 115.102 204.307 115.667 206.328 117.448V117.465ZM172.46 119.811C174.555 118.964 176.706 118.266 178.898 117.722C182.323 126.026 181.432 124.211 182.014 125.684C179.514 126.808 177.079 128.071 174.72 129.467C173.676 126.985 172.118 122.43 172.46 119.811ZM208.417 68.5473V70.7047C203.28 71.3724 203.28 72.4169 203.28 71.7491C206.071 70.1568 207.869 69.7287 208.434 68.4446L208.417 68.5473ZM201.705 81.834C201.355 81.5231 200.963 81.2636 200.541 81.0635C200.284 80.9265 200.541 81.0635 200.541 80.6697C200.605 80.3533 200.605 80.0273 200.541 79.7109C200.966 79.823 201.402 79.8918 201.842 79.9163C201.756 80.43 201.739 81.1491 201.722 81.7655L201.705 81.834ZM196.123 72.6395C195.575 73.3757 194.924 74.1291 194.411 74.8996C195.168 71.8974 196.745 69.1647 198.965 67.0063C199.697 66.5358 200.395 66.0152 201.054 65.4482C203.177 62.9998 199.342 60.4999 196.226 63.2908C193.91 65.28 192.325 67.9858 191.723 70.9786C191.277 73.2559 191.945 72.9819 191.123 72.7764C190.371 72.5044 189.547 72.5044 188.795 72.7764C188.247 71.167 184.651 71.1841 183.436 72.0573C182.939 72.4169 183.281 72.3484 182.888 72.0573C182.122 71.8419 181.317 71.7993 180.532 71.9325C179.748 72.0658 179.002 72.3715 178.35 72.8278C178.196 72.9305 177.648 73.6154 177.34 73.9407C176.667 73.9071 175.994 74.0241 175.371 74.2832C174.727 74.5782 174.224 75.1125 173.967 75.7728V76.1666C173.661 76.111 173.348 76.111 173.043 76.1666C171.889 76.6477 170.972 77.5645 170.491 78.7178C170.212 79.2426 170.133 79.8512 170.269 80.43C168.779 81.2347 167.221 82.399 167.478 84.077C167.621 84.4984 167.835 84.8921 168.111 85.2413C167.683 85.5495 166.519 85.6865 166.759 88.289L165.475 88.1863C164.584 83.6832 164.036 55.7571 164.482 55.4489C166.519 54.5072 198.178 54.3874 201.448 55.2948C201.834 59.1632 201.994 63.0508 201.927 66.9378C199.629 68.3947 197.659 70.3129 196.14 72.571L196.123 72.6395ZM206.961 99.1786C204.858 99.7404 202.699 100.068 200.523 100.155C200.825 99.9345 201.054 99.6299 201.182 99.2793C201.31 98.9288 201.331 98.5481 201.243 98.1855C201.578 98.1219 201.894 97.9781 202.162 97.7665C202.43 97.5548 202.643 97.2816 202.783 96.9699C202.972 96.4618 202.972 95.9027 202.783 95.3947C202.681 95.1549 202.578 95.3947 203.109 95.1036C203.427 94.953 203.71 94.736 203.938 94.467C204.165 94.198 204.333 93.8833 204.428 93.5442C204.524 93.2051 204.546 92.8494 204.493 92.5011C204.439 92.1528 204.312 91.82 204.119 91.5251C204.382 91.2214 204.552 90.8477 204.607 90.4494C204.661 90.0511 204.599 89.6455 204.427 89.2821C204.146 88.7846 203.714 88.3891 203.194 88.152C203.45 87.7245 203.558 87.2251 203.502 86.7303C203.446 86.2356 203.23 85.7727 202.886 85.4125C202.886 83.94 203.023 82.0908 203.092 80.0191C204.857 80.0358 206.589 80.5012 208.126 81.3717C208.023 84.1626 207.646 96.5761 206.978 99.1101L206.961 99.1786ZM110.753 99.1786C108.458 89.3334 107.054 5.53822 108.527 4.03148C111.369 0.915268 200.9 -0.231909 207.252 2.86718C207.566 3.98583 207.766 5.133 207.852 6.29159C209.084 18.8763 208.725 54.2333 208.502 67.1947C207.698 65.2941 205.163 65.4825 203.246 66.2187C203.29 62.4324 203.101 58.6471 202.681 54.8839C202.662 54.6965 202.589 54.5186 202.471 54.3724C202.352 54.2263 202.193 54.1183 202.013 54.0621C199.017 52.9834 165.457 53.7025 164.122 54.9695C163.3 55.7743 163.591 85.7892 164.482 88.7513C164.535 88.877 164.623 88.9853 164.735 89.0639C164.847 89.1425 164.978 89.1884 165.115 89.1965C165.594 89.1965 166.707 89.3506 167.084 89.3677C167.375 89.8985 167.837 90.0012 168.094 90.2238C167.943 90.3493 167.824 90.5103 167.75 90.6925C167.675 90.8746 167.646 91.0724 167.666 91.2682C167.759 92.1567 168.104 93.0002 168.659 93.6996C169.481 94.6755 170.235 94.3845 171.073 94.3845C171.245 95.8056 171.604 98.1513 172.135 100.754C159.876 100.771 116.3 100.12 110.77 99.0588L110.753 99.1786ZM182.443 111.164C182.25 111.005 182.007 110.92 181.758 110.924C180.273 110.897 178.822 110.484 177.546 109.726C176.188 108.348 175.102 106.728 174.344 104.949C173.013 100.429 172.175 95.7794 171.844 91.0799C171.998 88.9568 174.138 86.3371 178.008 85.5324C181.059 84.9959 184.202 85.3835 187.031 86.6453C189.308 87.5528 192.459 91.1826 193.726 93.1517C193.785 93.2333 193.872 93.2894 193.971 93.3085C194.07 93.3276 194.172 93.3082 194.257 93.2544C194.795 92.9074 195.369 92.6203 195.969 92.3983C196.479 92.279 197.016 92.3645 197.465 92.6366C197.913 92.9087 198.236 93.3457 198.366 93.8537C199.256 95.8741 195.918 99.2471 195.455 99.8978C195.391 100.069 195.391 100.257 195.455 100.429C196.4 105.037 197.074 109.696 197.476 114.383C196.911 114.708 196.209 115.239 190.37 119.622C187.859 121.225 185.456 122.992 183.179 124.913C182.545 122.893 180.936 119.331 180.114 117.533C182.819 111.472 182.853 111.506 182.46 111.113L182.443 111.164ZM139.894 158.078C146.743 145.1 157.461 126.094 171.844 120.256C171.777 123.899 172.514 127.511 174.001 130.837C174.058 130.919 174.134 130.985 174.222 131.031C174.31 131.076 174.407 131.1 174.506 131.1C174.606 131.1 174.703 131.076 174.791 131.031C174.879 130.985 174.955 130.919 175.012 130.837C175.671 130.274 176.402 129.802 177.186 129.433C177.506 130.665 178.052 131.826 178.796 132.858C178.419 135.015 171.553 163.266 171.947 164.927C173.161 168.072 174.766 171.052 176.724 173.796C177.1 174.31 177.511 174.704 178.042 174.276C180.625 171.659 182.775 168.648 184.412 165.355C184.514 164.996 184.549 165.235 183.367 133.474C183.932 132.823 185.079 131.454 185.61 130.666C187.014 132.635 186.226 132.378 186.723 132.772C187.22 133.166 187.511 132.943 187.939 132.772C190.747 131.163 205.061 120.102 207.304 117.961C210.091 119.234 212.756 120.758 215.265 122.516C226.515 129.707 228.963 142.292 230.145 155.544C230.932 164.859 229.751 172.769 222.868 178.693C218.322 182.378 212.972 184.941 207.252 186.176C203.52 187.1 187.288 189.48 184.206 189.908C182.853 185.671 181.288 181.505 179.515 177.426C185.114 174.995 195.164 171.416 200.883 169.482C200.982 169.454 201.069 169.393 201.128 169.309C201.188 169.224 201.216 169.122 201.208 169.019C200.832 164.225 200.335 151.709 202.184 147.257C202.321 146.949 201.825 146.744 201.688 147.052C199.702 151.589 199.975 163.763 200.249 168.711C194.377 170.595 184.668 173.848 179.018 176.296C178.778 175.783 178.761 175.543 178.282 175.492C176.826 175.372 171.228 177.752 170.457 179.207C170.115 179.841 171.159 183.042 171.519 184.19C167.957 184.498 162.958 185.679 160.595 188.419C158.878 187.931 157.214 187.271 155.629 186.45C156.383 181.313 160.526 173.146 163.129 168.814C164.122 167.102 165.372 155.99 165.492 154.157C165.587 152.521 165.587 150.88 165.492 149.243C165.477 149.185 165.442 149.132 165.394 149.095C165.346 149.058 165.287 149.037 165.226 149.037C165.165 149.037 165.106 149.058 165.058 149.095C165.01 149.132 164.976 149.185 164.961 149.243C164.858 150.305 164.67 151.538 164.447 152.942C164.345 153.712 163.129 166.229 161.879 168.352C157.907 173.985 150.561 184.292 146.315 189.737C146.161 189.052 141.059 166.211 140.065 165.595C139.047 165.273 137.983 165.117 136.915 165.133C137.752 162.718 138.747 160.362 139.894 158.078V158.078ZM99.7431 167.564C105.102 167.016 137.412 165.39 139.518 166.434C139.62 167.239 141.863 173.146 143.798 182.34C145.253 189.189 147.223 196.038 147.599 198.315C146.709 198.315 110.479 196.877 108.801 196.603C107.499 193.675 100.616 170.988 99.7431 167.564V167.564ZM25.7588 215.574C24.7315 213.862 21.2043 198.281 22.6939 196.192C24.6116 193.521 27.8305 203.212 28.8921 205.113C30.9468 209.136 34.5081 208.212 43.2233 206.825C43.5315 207.732 43.6342 208.537 44.4218 208.537C44.5535 208.535 44.6827 208.501 44.7986 208.438C44.9144 208.375 45.0134 208.285 45.0872 208.176C45.1611 208.067 45.2076 207.942 45.2229 207.811C45.2382 207.68 45.2219 207.547 45.1752 207.424C45.0382 207.082 44.9355 206.756 44.8499 206.482C51.4076 205.438 50.7056 205.387 50.7227 205.661C50.7227 205.874 50.8075 206.079 50.9584 206.23C51.1093 206.38 51.314 206.465 51.5274 206.465C51.7409 206.465 51.9456 206.38 52.0965 206.23C52.2474 206.079 52.3322 205.874 52.3322 205.661V205.267C56.7154 204.479 61.0815 203.555 65.4648 202.818C65.4648 203.058 65.5846 203.281 65.6702 203.503C65.7406 203.705 65.8884 203.871 66.0811 203.964C66.2737 204.057 66.4955 204.07 66.6976 204C66.8996 203.929 67.0655 203.782 67.1586 203.589C67.2517 203.396 67.2645 203.174 67.1941 202.972C67.1941 202.818 67.1941 202.664 67.0571 202.527C71.8342 201.637 75.9777 200.815 80.6349 200.199V201.363C80.6439 201.469 80.6736 201.571 80.7224 201.666C80.7711 201.76 80.8379 201.844 80.919 201.912C81.0001 201.98 81.0939 202.032 81.195 202.064C81.296 202.096 81.4024 202.108 81.5081 202.099C81.6138 202.09 81.7167 202.06 81.8109 202.012C81.9051 201.963 81.9887 201.896 82.0571 201.815C82.1255 201.734 82.1772 201.64 82.2093 201.539C82.2415 201.438 82.2534 201.332 82.2444 201.226V199.976C90.8054 198.726 92.3635 198.88 96.4899 198.264L96.781 199.069C96.8807 199.24 97.039 199.37 97.2268 199.433C97.4145 199.497 97.619 199.491 97.8025 199.416C97.9861 199.341 98.1363 199.202 98.2254 199.025C98.3146 198.848 98.3367 198.644 98.2877 198.452C98.2232 198.307 98.1661 198.158 98.1165 198.007C101.216 197.493 104.298 196.843 107.414 196.295C107.962 197.733 107.893 197.716 109.571 197.853C109.759 197.853 110.376 204.856 112.636 217.423C93.3908 218.485 56.4928 219.136 38.3264 216.259C37.2305 216.088 35.5183 216.019 35.6896 216.019C33.7205 213.4 30.1078 208.417 28.5668 211.259C27.8528 212.621 27.6176 214.183 27.899 215.694C27.1837 215.706 26.4683 215.666 25.7588 215.574V215.574ZM44.8156 218.382C42.8146 218.879 40.8473 219.502 38.9256 220.249C38.1133 219.345 37.353 218.396 36.6484 217.406C38.4291 217.577 39.542 217.903 44.7814 218.382H44.8156ZM14.3555 294.455C13.9788 295.483 11.2051 295.175 9.81817 294.181C8.73948 293.394 8.37992 296.972 16.0163 249.373C18.3868 249.848 20.7819 250.191 23.1905 250.4C18.1737 276.049 15.1774 292.178 14.3555 294.455ZM64.7457 291.887C64.7457 292.658 64.9682 292.914 64.1806 293.497C62.828 294.473 60.02 294.832 59.6262 293.788C58.7701 291.493 55.4313 273.515 50.8254 249.853C53.2101 249.467 55.571 248.947 57.8968 248.294C59.8488 260.502 64.6258 290.552 64.7457 291.801V291.887ZM37.3504 241.857C27.5566 241.857 6.70196 241.497 1.77081 232.987C4.30487 223.039 18.2251 219.82 28.4298 218.776C29.2882 222.088 30.3401 225.347 31.5803 228.536C32.1849 230.03 33.3187 231.249 34.765 231.96C35.9295 232.266 37.1471 232.31 38.3309 232.091C39.5147 231.872 40.6357 231.395 41.6138 230.693C65.4305 228.227 56.373 229.871 73.8032 229.272C67.4852 239.048 49.1817 241.788 37.3675 241.771L37.3504 241.857ZM52.9486 228.381C52.5205 228.381 41.3741 229.289 40.9631 229.529C40.1404 230.125 39.2015 230.541 38.2074 230.75C37.2133 230.96 36.1863 230.958 35.193 230.744C34.08 230.164 33.2115 229.204 32.7446 228.039C31.7001 225.419 27.3169 213.434 29.7482 211.927C31.5803 212.167 37.0593 221.019 38.3948 221.653C38.5035 221.708 38.6238 221.737 38.7458 221.737C38.8679 221.737 38.9882 221.708 39.0968 221.653C42.2092 220.434 45.416 219.472 48.6852 218.776C69.9988 219.889 91.3601 219.717 112.653 218.262C112.85 219.477 113.125 220.678 113.475 221.858C113.503 221.928 113.548 221.991 113.604 222.041C113.66 222.092 113.727 222.129 113.8 222.149C115.512 222.697 117.618 223.382 120.238 224.118C74.9675 229.717 65.2764 227.371 52.9657 228.296L52.9486 228.381ZM123.56 286.357C123.183 287.384 120.392 287.059 119.023 286.066C117.961 285.312 117.43 289.73 125.974 236.566C128.131 237.234 130.563 237.867 133.148 238.415C127.31 268.259 124.433 283.994 123.577 286.271L123.56 286.357ZM179.258 285.929C179.155 287.007 176.398 287.435 174.806 286.836C173.539 286.357 174.155 290.072 168.916 240.47C171.313 240.196 173.727 239.887 176.159 239.545C178.145 267.762 179.498 283.48 179.275 285.894L179.258 285.929ZM207.971 231.755C210.249 230.864 212.509 229.905 214.7 228.861L222.251 258.705C220.196 259.073 218.182 259.646 216.241 260.417C214.101 252.78 210.112 239.066 207.989 231.669L207.971 231.755ZM229.1 259.407C233.221 259.559 237.301 260.285 241.222 261.564C242.614 261.951 243.986 262.408 245.332 262.934C249.529 264.851 253.301 267.587 256.427 270.981C259.475 274.577 260.159 279.251 259.851 283.994C259.629 286.853 257.779 288.72 255.536 290.534C255.297 288.6 252.112 287.11 250.263 286.819C249.989 286.819 249.955 286.922 250.691 286.511C252.008 285.78 253.062 284.654 253.704 283.292C253.944 283.035 253.55 282.675 253.328 282.932C251.461 284.216 250.468 285.244 247.951 286.819C247.78 286.819 247.814 287.23 246.719 287.179C245.193 286.818 243.629 286.646 242.061 286.665C241.287 284.715 240.995 282.608 241.209 280.521C241.424 278.434 242.139 276.43 243.294 274.679C246.239 270.724 247.352 272.163 247.352 271.426C247.352 270.279 239.853 272.351 239.938 281.494C240.001 283.301 240.507 285.065 241.411 286.631C239.374 286.732 237.37 287.183 235.487 287.966C235.093 287.607 233.449 288.463 232.387 287.966C233.293 284.903 233.629 281.699 233.381 278.515C233.125 276.615 232.322 274.83 231.069 273.378C229.671 271.784 227.909 270.551 225.933 269.783C221.857 268.31 220.471 270.382 218.056 271.152C217.656 271.287 217.223 271.287 216.824 271.152C215.283 270.656 211.122 269.44 210.214 270.827C209.512 271.871 210.54 273.412 211.208 274.577C211.875 275.741 212.098 275.809 210.985 278.635C210.653 279.571 210.217 280.467 209.684 281.306C208.81 282.213 205.883 282.881 205.335 283.942C204.222 285.997 208.451 288.069 209.239 289.079C210.026 290.089 211.396 291.956 212.132 292.743C214.923 295.791 221.755 296.493 225.299 295.363C227.009 294.824 228.553 293.857 229.785 292.555C230.864 293.462 230.658 294.883 230.367 296.305C230.196 297.126 229.323 297.606 228.655 298.017C226.456 299.438 223.852 300.099 221.241 299.9C220.561 299.68 219.902 299.399 219.272 299.061C217.564 298.654 215.933 297.972 214.444 297.041C213.15 295.732 211.638 294.66 209.975 293.873C201.876 291.801 200.335 282.076 202.886 274.44C206.037 264.749 218.656 259.133 229.117 259.321L229.1 259.407ZM223.518 294.901C225.231 291.956 224.255 288.052 222.405 285.312C220.18 281.888 218.193 283.086 216.669 282.299C214.512 281.169 214.187 279.902 213.331 279.285C212.92 279.017 212.469 278.815 211.995 278.686C212.395 277.815 212.644 276.883 212.731 275.929C212.612 274.765 210.728 272.265 211.019 271.7C211.927 271.272 215.3 272.214 216.259 272.539C218.091 273.156 220.197 271.426 221.806 270.827C224.46 269.954 228.175 272.197 229.973 274.251C232.901 277.676 232.251 281.871 231.377 286.237C231.144 288.312 230.26 290.26 228.851 291.801C227.442 293.342 225.581 294.397 223.535 294.815L223.518 294.901ZM220.197 289.593C220.334 289.832 220.008 290.158 219.717 289.85C219.495 289.63 219.33 289.359 219.237 289.06C219.145 288.761 219.127 288.444 219.186 288.137C219.215 287.831 219.332 287.54 219.523 287.3C219.715 287.059 219.973 286.88 220.265 286.785C220.727 286.631 220.779 287.059 220.608 287.196C220.368 287.524 220.208 287.904 220.14 288.305C220.071 288.706 220.097 289.118 220.214 289.507L220.197 289.593ZM270.57 299.01C270.57 299.969 270.775 301.475 270.142 302.092C269.816 302.417 265.33 301.715 260.742 302.383C259.029 302.64 257.197 303.034 255.434 303.273C245.554 304.677 248.585 303.53 233.843 307.982C231.48 308.684 229.066 309.146 226.686 309.78C222.063 311.03 220.06 312.553 216.721 313.375C211.396 314.711 210.471 311.8 207.817 308.581C204.085 304.027 203.006 298.582 199.873 294.147C193.709 285.432 192.099 286.733 188.932 284.028C188.309 283.514 187.796 282.879 187.425 282.162C187.371 282.071 187.342 281.968 187.342 281.862C187.342 281.757 187.371 281.653 187.425 281.563C188.26 280.53 189.24 279.625 190.336 278.874C191.724 277.953 193.184 277.146 194.702 276.46C197.065 275.176 200.232 273.207 202.287 272.317C198.4 280.535 199.787 292.863 209.478 295.192C210.097 295.402 210.675 295.715 211.19 296.116C212.391 297.224 213.712 298.195 215.128 299.01C216.293 299.524 217.611 299.797 218.775 300.226C219.725 300.787 220.792 301.118 221.892 301.193C222.992 301.267 224.095 301.082 225.111 300.654C226.993 300.086 228.74 299.143 230.247 297.88C230.563 297.552 230.782 297.143 230.881 296.698C231.189 294.986 231.326 293.394 230.025 292.332C230.943 291.206 231.64 289.916 232.079 288.531C232.676 288.751 233.319 288.81 233.946 288.702C231.377 290.808 232.131 292.623 235.435 293.462C238.62 294.251 241.923 294.443 245.178 294.027C248.397 293.736 252.728 293.925 255.331 291.938C257.934 289.952 260.57 287.641 260.896 284.097C261.221 280.552 260.707 279.73 261.221 280.843C262.231 283.001 263.019 285.278 264.183 287.316C266.169 290.74 269.868 292.726 270.398 296.767C270.515 297.481 270.583 298.201 270.604 298.924L270.57 299.01ZM300.105 290.74C300.105 290.74 300.105 290.637 300.105 290.74C300.448 291.373 275.141 293.445 269.114 291.596C268.857 291.288 268.601 290.98 268.31 290.671C266.597 284.97 264.354 269.491 263.669 264.269C276.861 264.318 290.043 263.535 303.136 261.924C302.947 266.786 301.064 288.069 300.122 290.654L300.105 290.74ZM305.242 254.373C305.918 256.506 305.918 258.797 305.242 260.93C304.523 262.061 264.731 263.516 261.7 262.745C260.868 260.756 260.556 258.588 260.793 256.444C260.793 256.444 261.581 256.085 262.402 255.897C270.946 253.91 304.42 252.952 305.327 254.287L305.242 254.373ZM280.655 252.9C276.049 253.089 266.015 253.619 261.683 254.732C260.913 254.938 259.834 255.246 259.629 255.948C259.115 257.575 259.714 262.471 260.861 263.704C261.221 264.115 262.248 264.149 263.002 264.201C263.635 270.553 265.108 282.316 266.426 288.583C263.601 285.261 263.002 281.528 260.656 277.847C260.227 275.023 259.044 272.367 257.232 270.159C253.979 266.598 250.042 263.727 245.657 261.718C244.356 261.187 243.003 260.776 241.428 260.297C235.626 258.285 229.434 257.658 223.347 258.465C222.919 256.753 217.354 236.532 215.146 228.587C226.155 223.142 232.833 213.297 236.959 201.722C237.978 204.348 239.233 206.875 240.709 209.273C242.592 212.355 259.423 229.648 266.032 232.593C268.866 233.765 271.925 234.292 274.987 234.134C276.042 234.104 277.094 234.012 278.138 233.861C278.514 235.47 279.473 240.024 280.74 252.815L280.655 252.9ZM321.559 208.537C314.368 218.913 307.981 221.019 297.383 226.275C291.855 228.93 286.072 231.018 280.124 232.508C281.75 228.518 286.356 223.536 289.267 220.522C296.445 213.242 304.037 206.382 312.005 199.976C312.059 199.935 312.095 199.874 312.105 199.807C312.115 199.739 312.097 199.671 312.056 199.616C312.015 199.562 311.955 199.526 311.887 199.516C311.82 199.507 311.751 199.524 311.697 199.565C295.243 210.729 282.589 225.248 279.593 230.83C279.633 228.735 279.512 226.64 279.233 224.563C279.908 221.431 280.996 218.402 282.469 215.557C284.189 212.574 286.177 209.754 288.411 207.133C294.386 198.863 306.372 187.426 316.131 190.696C324.093 193.281 326.353 201.654 321.645 208.451L321.559 208.537Z" fill="#F83E7D"/>
<path d="M74.7106 206.191C74.8475 206.189 74.9817 206.154 75.1011 206.087C75.2205 206.02 75.3213 205.924 75.3944 205.809C75.4676 205.693 75.5107 205.561 75.5198 205.425C75.529 205.288 75.5039 205.151 75.4469 205.027C75.1216 204.308 74.9504 203.623 74.4881 202.784C74.3833 202.598 74.2105 202.46 74.006 202.4C73.8015 202.339 73.5814 202.36 73.3922 202.459C73.2986 202.509 73.2158 202.577 73.1487 202.66C73.0816 202.742 73.0315 202.837 73.0012 202.939C72.971 203.041 72.9612 203.148 72.9725 203.253C72.9838 203.359 73.0159 203.461 73.0669 203.554C73.8203 204.941 73.8032 206.191 74.7106 206.191ZM59.472 208.023C59.4852 208.235 59.58 208.434 59.7364 208.577C59.8928 208.721 60.0987 208.799 60.311 208.794C60.4167 208.789 60.5205 208.764 60.6165 208.72C60.7124 208.675 60.7987 208.612 60.8702 208.534C60.9418 208.456 60.9973 208.365 61.0336 208.265C61.0698 208.166 61.0861 208.061 61.0815 207.955C61.0815 206.243 61.4582 204.873 60.174 204.787C59.9589 204.809 59.7609 204.915 59.6231 205.081C59.4853 205.248 59.4187 205.462 59.4378 205.678C59.5234 206.499 59.4378 207.133 59.472 208.023ZM89.5383 203.554C89.5473 203.66 89.577 203.763 89.6258 203.857C89.6745 203.951 89.7414 204.035 89.8225 204.103C89.9035 204.172 89.9973 204.224 90.0984 204.256C90.1995 204.288 90.3059 204.3 90.4115 204.291C90.5172 204.282 90.6201 204.252 90.7143 204.203C90.8085 204.155 90.8922 204.088 90.9605 204.007C91.0289 203.926 91.0806 203.832 91.1127 203.731C91.1449 203.63 91.1568 203.523 91.1478 203.418C91.1478 202.613 91.1478 201.894 91.0108 200.969C90.9541 200.778 90.8297 200.614 90.6609 200.507C90.4921 200.401 90.2904 200.36 90.0934 200.391C89.8964 200.423 89.7175 200.525 89.5902 200.678C89.4628 200.832 89.3957 201.026 89.4013 201.226C89.5212 201.996 89.4698 202.716 89.5383 203.554Z" fill="#F83E7D"/>
</svg>
